<?xml version="1.0" standalone="no"?>
<!DOCTYPE svg PUBLIC "-//W3C//DTD SVG 20010904//EN"
 "http://www.w3.org/TR/2001/REC-SVG-20010904/DTD/svg10.dtd">
<svg version="1.0" xmlns="http://www.w3.org/2000/svg"
 width="600.000000pt" height="600.000000pt" viewBox="0 0 600.000000 600.000000"
 preserveAspectRatio="xMidYMid meet">
<metadata>
Created by potrace 1.14, written by Peter Selinger 2001-2017
</metadata>
<g transform="translate(0.000000,600.000000) scale(0.100000,-0.100000)"
fill="#000000" stroke="none">
<path d="M3410 5974 c-430 -48 -721 -132 -1072 -310 -449 -228 -854 -610
-1150 -1082 -300 -480 -483 -1033 -554 -1674 -25 -220 -25 -674 -1 -863 77
-594 288 -1052 643 -1396 359 -346 787 -536 1379 -610 56 -7 210 -13 350 -13
333 0 592 33 935 119 414 104 891 319 1163 524 40 30 73 55 74 56 4 2 303
2557 303 2583 l0 22 -1108 0 -1107 0 -63 -492 c-35 -271 -66 -519 -69 -550
l-6 -58 483 0 483 0 -5 -33 c-3 -17 -27 -179 -54 -359 l-49 -327 -61 -35
c-315 -185 -604 -256 -948 -234 -312 20 -551 141 -738 373 -90 112 -177 322
-219 531 -27 138 -37 451 -20 646 67 749 398 1406 876 1734 222 152 459 227
720 227 337 0 605 -110 852 -347 63 -60 171 -187 199 -234 2 -2 177 129 391
290 213 162 441 334 506 383 79 59 116 93 112 102 -13 37 -137 205 -210 287
-352 394 -813 635 -1380 722 -95 15 -569 28 -655 18z"/>
<path d="M5994 1665 c0 -99 2 -138 3 -87 2 51 2 132 0 180 -1 48 -3 6 -3 -93z"/>
</g>
</svg>
